<?xml version="1.0" encoding="utf-8"?>
<!-- Generator: Adobe Illustrator 18.1.0, SVG Export Plug-In . SVG Version: 6.00 Build 0)  -->
<svg version="1.1" id="Layer_1" xmlns="http://www.w3.org/2000/svg" xmlns:xlink="http://www.w3.org/1999/xlink" x="0px" y="0px"
	 viewBox="0 0 100 100" enable-background="new 0 0 100 100" xml:space="preserve">
<g>
	<path fill="#FFFFFF" d="M70,9L59.6,9C48,9,40.5,16.9,40.5,29.2v9.3H30c-0.9,0-1.6,0.7-1.6,1.7v13.5c0,0.9,0.7,1.7,1.6,1.7h10.4v34
		c0,0.9,0.7,1.7,1.6,1.7h13.6c0.9,0,1.6-0.7,1.6-1.7v-34h12.2c0.9,0,1.6-0.7,1.6-1.7l0-13.5c0-0.4-0.2-0.9-0.5-1.2
		c-0.3-0.3-0.7-0.5-1.2-0.5H57.3v-7.9c0-3.8,0.9-5.7,5.7-5.7l7,0c0.9,0,1.6-0.7,1.6-1.7V10.7C71.6,9.8,70.9,9,70,9z"/>
</g>
</svg>
