<?xml version="1.0" encoding="utf-8"?>
<!-- Generator: Adobe Illustrator 18.1.0, SVG Export Plug-In . SVG Version: 6.00 Build 0)  -->
<svg version="1.1" id="Layer_1" xmlns="http://www.w3.org/2000/svg" xmlns:xlink="http://www.w3.org/1999/xlink" x="0px" y="0px"
	 viewBox="0 0 100 100" enable-background="new 0 0 100 100" xml:space="preserve">
<g>
	<path fill="#FFFFFF" d="M72.1,31.1c-1.7,0-3.2-1.4-3.2-3.2v-6.3c0-1.7,1.4-3.2,3.2-3.2h6.3c1.7,0,3.2,1.4,3.2,3.2v6.3
		c0,1.7-1.4,3.2-3.2,3.2H72.1z"/>
	<path fill="#FFFFFF" d="M50,38c-2.3,0-4.4,0.7-6.2,1.8c0.6-0.2,1.2-0.3,1.8-0.3c3.4,0,6.1,2.7,6.1,6.1c0,3.4-2.7,6.1-6.1,6.1
		c-3.4,0-6.1-2.7-6.1-6.1c0-0.6,0.1-1.2,0.3-1.8C38.6,45.6,38,47.7,38,50c0,6.6,5.4,12,12,12c6.6,0,12-5.4,12-12
		C62,43.3,56.6,38,50,38z"/>
	<path fill="#FFFFFF" d="M50,31.1c10.5,0,18.9,8.5,18.9,18.9c0,10.5-8.5,18.9-18.9,18.9c-10.5,0-18.9-8.5-18.9-18.9
		C31.1,39.5,39.5,31.1,50,31.1 M50,24.8c-13.9,0-25.2,11.3-25.2,25.2S36.1,75.2,50,75.2S75.2,63.9,75.2,50S63.9,24.8,50,24.8z"/>
	<path fill="#FFFFFF" d="M75.6,9H24.4C15.9,9,9,15.9,9,24.4v51.3C9,84.1,15.9,91,24.4,91h51.3C84.1,91,91,84.1,91,75.6V24.4
		C91,15.9,84.1,9,75.6,9z M84.7,37.4H64.1c3,3.4,4.8,7.8,4.8,12.6c0,10.5-8.5,18.9-18.9,18.9c-10.5,0-18.9-8.5-18.9-18.9
		c0-4.9,1.8-9.3,4.8-12.6H15.3v-13c0-5,4.1-9.1,9.1-9.1h51.3c5,0,9.1,4.1,9.1,9.1V37.4z"/>
</g>
</svg>
