<?xml version="1.0" encoding="utf-8"?>
<!-- Generator: Adobe Illustrator 18.1.0, SVG Export Plug-In . SVG Version: 6.00 Build 0)  -->
<svg version="1.1" id="Layer_1" xmlns="http://www.w3.org/2000/svg" xmlns:xlink="http://www.w3.org/1999/xlink" x="0px" y="0px"
	 viewBox="0 0 100 100" enable-background="new 0 0 100 100" xml:space="preserve">
<path fill="#FFFFFF" d="M35.7,39.4v28.3c-3.2-1.4-7.5-1.4-11.7,0.8c-6.3,3.2-8.1,9-5.6,12.7c2.4,3.7,9,5.3,15.3,2.1
	c4.5-2.3,6.7-6,6.7-9.2V38.5l36.8-7.3v32c-3.2-1.4-7.5-1.4-11.7,0.8c-6.3,3.2-8.1,9-5.6,12.7c2.4,3.7,9,5.3,15.3,2.1
	c4.5-2.3,6.7-6,6.7-9.2V30.2V16.6V12l-46.1,9.1V39.4z"/>
</svg>
