<?xml version="1.0" encoding="utf-8"?>
<!-- Generator: Adobe Illustrator 18.1.0, SVG Export Plug-In . SVG Version: 6.00 Build 0)  -->
<svg version="1.1" id="Layer_1" xmlns="http://www.w3.org/2000/svg" xmlns:xlink="http://www.w3.org/1999/xlink" x="0px" y="0px"
	 viewBox="0 0 100 100" enable-background="new 0 0 100 100" xml:space="preserve">
<g>
	<path fill="#FFFFFF" d="M3.7,67l1.6-6.9L3.7,53c0-0.2-0.5-0.4-1-0.4c-0.5,0-0.9,0.2-1,0.4l-1.4,7.1L1.8,67c0,0.2,0.4,0.4,1,0.4
		C3.2,67.3,3.6,67.2,3.7,67z M13.9,70.8l1.4-10.6l-1.4-16.4c0-0.4-0.6-0.7-1.2-0.7c-0.6,0-1.1,0.3-1.2,0.7l-1.2,16.4l1.2,10.6
		c0,0.4,0.5,0.7,1.2,0.7C13.3,71.5,13.8,71.2,13.9,70.8z M24,70.6l1.2-10.4L24,38.3c0-0.5-0.6-0.9-1.4-0.9c-0.8,0-1.4,0.4-1.4,0.9
		l-1,21.9l1,10.4c0,0.5,0.6,0.9,1.4,0.9C23.4,71.5,24,71.1,24,70.6z M34.2,70.4l0.9-10.3l-0.9-22c0-0.6-0.7-1.1-1.6-1.1
		c-0.9,0-1.6,0.5-1.6,1.1l-0.8,22L31,70.4c0,0.6,0.7,1.1,1.6,1.1C33.4,71.5,34.1,71.1,34.2,70.4z M44.3,70.3L45,60.2l-0.7-25.3
		c0-0.7-0.8-1.3-1.8-1.3c-1,0-1.8,0.6-1.8,1.3l-0.7,25.2c0,0,0.7,10.2,0.7,10.2c0,0.7,0.8,1.2,1.8,1.2C43.5,71.6,44.3,71,44.3,70.3z
		 M51.4,71.6c0,0,35.2,0,35.5,0c7.1,0,12.8-5.5,12.8-12.2c0-6.8-5.7-12.2-12.8-12.2c-1.8,0-3.4,0.3-4.9,1c-1-11-10.7-19.7-22.5-19.7
		c-2.9,0-5.7,0.5-8.2,1.5c-1,0.4-1.2,0.7-1.2,1.4v38.8C50,70.9,50.6,71.5,51.4,71.6z"/>
</g>
</svg>
