<?xml version="1.0" encoding="utf-8"?>
<!-- Generator: Adobe Illustrator 18.1.0, SVG Export Plug-In . SVG Version: 6.00 Build 0)  -->
<svg version="1.1" id="Layer_1" xmlns="http://www.w3.org/2000/svg" xmlns:xlink="http://www.w3.org/1999/xlink" x="0px" y="0px"
	 viewBox="0 0 100 100" enable-background="new 0 0 100 100" xml:space="preserve">
<g>
	<path fill="#FFFFFF" d="M84.7,20.9c-2.9,1.7-6.1,3-9.6,3.7c-2.7-3-6.7-4.8-11-4.8c-8.3,0-15.1,6.8-15.1,15.3c0,1.2,0.1,2.4,0.4,3.5
		c-12.5-0.6-23.6-6.7-31-15.9c-1.3,2.2-2,4.9-2,7.7c0,5.3,2.7,10,6.7,12.7c-2.5-0.1-4.8-0.8-6.8-1.9v0.2c0,7.4,5.2,13.6,12.1,15
		c-1.3,0.3-2.6,0.5-4,0.5c-1,0-1.9-0.1-2.8-0.3C23.4,62.5,29,66.9,35.6,67c-5.2,4.1-11.6,6.5-18.7,6.5c-1.2,0-2.4-0.1-3.6-0.2
		c6.7,4.3,14.6,6.9,23.1,6.9c27.7,0,42.8-23.3,42.8-43.4l0-2c3-2.1,5.5-4.8,7.5-7.9c-2.7,1.2-5.6,2-8.6,2.4
		C81.2,27.4,83.5,24.5,84.7,20.9z"/>
</g>
</svg>
