<?xml version="1.0" encoding="utf-8"?>
<!-- Generator: Adobe Illustrator 18.1.0, SVG Export Plug-In . SVG Version: 6.00 Build 0)  -->
<svg version="1.1" id="Layer_1" xmlns="http://www.w3.org/2000/svg" xmlns:xlink="http://www.w3.org/1999/xlink" x="0px" y="0px"
	 viewBox="0 0 100 100" enable-background="new 0 0 100 100" xml:space="preserve">
<g>
	<path fill="#FFFFFF" d="M91,56.9v26.7c0,1.7-0.4,3.2-1.1,4.6c-0.7,1.4-1.7,2.6-2.9,3.7c-1.2,1.1-2.6,1.9-4.3,2.5
		c-1.6,0.6-3.4,0.9-5.2,0.9H22.4c-1.8,0-3.6-0.3-5.2-0.9c-1.6-0.6-3-1.4-4.3-2.5c-1.2-1.1-2.2-2.3-2.9-3.7C9.3,86.8,9,85.3,9,83.6
		V56.9c0-1.6,0.4-3.1,1.1-4.5c0.7-1.4,1.7-2.7,2.9-3.7c1.2-1,2.6-1.9,4.3-2.5c1.6-0.6,3.3-0.9,5.2-0.9h55.1c1.8,0,3.6,0.3,5.2,0.9
		c1.6,0.6,3.1,1.5,4.3,2.5c1.2,1,2.2,2.3,2.9,3.7C90.7,53.8,91,55.3,91,56.9z M26.1,86.6V58.4h6.8v-4.3H14.6v4.1h5.8v28.3H26.1z
		 M28.9,21L21.3,4.7h6.6l3.8,12.2l3.7-12.2H42L34.9,21v19.1h-6V21z M46.6,62.6H41v15c0,1.1,0,1.9,0.1,2.5c0,0.6,0,1-0.2,1.1
		c-0.2,0.6-0.6,1.1-1.5,1.4c-0.8,0.3-1.4-0.1-1.8-1.3c-0.1-0.2-0.1-0.6-0.1-1.2c0-0.6,0.1-1.5,0.1-2.5l-0.1-15.2h-5.6l0.1,14.9
		c0,1.2,0,2.1-0.1,2.9c0,0.8,0,1.4,0.1,1.8c0.1,0.7,0.2,1.4,0.2,2.1c0.1,0.7,0.5,1.4,1.2,1.8c0.7,0.4,1.4,0.6,2.3,0.6
		c0.9,0,1.8-0.1,2.6-0.4c0.8-0.3,1.6-0.7,2.3-1.2c0.7-0.5,1.2-1.1,1.6-1.6l-0.1,3l4.7,0.1V62.6z M41.5,23.5c0-2.2,0.2-4.1,0.6-5.5
		c0.5-1.5,1.3-2.6,2.4-3.2c1.1-0.8,2.5-1.2,4.2-1.2c1.5,0,2.8,0.2,3.8,0.7c1,0.4,1.9,1.1,2.5,2.1c0.5,0.7,0.9,1.6,1.1,2.5
		c0.2,1,0.4,2.4,0.4,4.1v6.4c0,2.3-0.1,4-0.4,5c-0.1,0.9-0.5,2-1.2,3.1c-0.7,1-1.5,1.7-2.4,2c-1,0.5-2.2,0.7-3.5,0.7
		c-1.3,0-2.6-0.2-3.7-0.6c-1-0.3-1.8-0.9-2.3-1.8c-0.5-0.7-0.9-1.6-1.2-2.7c-0.2-1.1-0.4-2.8-0.4-5V23.5z M46.5,33.5
		c0,0.6,0.2,1.2,0.7,1.7c0.5,0.5,1.1,0.8,1.8,0.8c0.6,0,1.2-0.2,1.7-0.7c0.5-0.5,0.8-1.1,0.8-1.8V20.3c0-0.7-0.2-1.3-0.8-1.9
		c-0.5-0.5-1.1-0.8-1.7-0.8c-0.7,0-1.2,0.3-1.7,0.8c-0.5,0.5-0.8,1.1-0.8,1.9V33.5z M64.9,79.7V67.3c0-2.4-0.9-4.1-2.6-5.1
		c-0.6-0.3-1.2-0.5-2-0.5c-1.4,0-2.9,0.6-4.7,1.9v-9.4H50v32.2l4.7-0.1l0.4-2c1.5,1.3,2.9,2,4.1,2.3c1.2,0.3,2.2,0.2,3.1-0.3
		c0.8-0.5,1.5-1.3,2-2.5C64.6,82.6,64.9,81.2,64.9,79.7z M58,64.8c0.7,0,1.2,0.2,1.7,0.6c0.5,0.4,0.8,0.8,0.8,1.3v14.1
		c0,0.5-0.3,0.9-0.8,1.3c-0.5,0.4-1.1,0.6-1.7,0.6c-0.7,0-1.2-0.2-1.8-0.6c-0.5-0.4-0.8-0.8-0.8-1.3V66.7c0-0.5,0.2-0.9,0.8-1.3
		C56.8,65,57.4,64.8,58,64.8z M60.7,37.6c-0.1-0.3-0.3-0.7-0.3-1c0-0.3-0.1-0.7-0.2-1c-0.1-0.4-0.1-1-0.1-1.7v-2.7V14.5h5.3v19.4
		c0,0.5,0.2,0.9,0.5,1.3c0.4,0.4,0.9,0.5,1.5,0.5c0.6,0,1.1-0.2,1.5-0.5c0.4-0.4,0.6-0.8,0.6-1.3V14.5h4.9v24.8h-6.2l0.1-2
		c-0.6,0.8-1.1,1.4-1.7,1.9c-0.7,0.4-1.4,0.6-2.2,0.6c-0.9,0-1.7-0.2-2.3-0.6C61.6,38.9,61.1,38.3,60.7,37.6z M82.7,78.2h-4.2v0.6
		v2.1c0,0.7-0.2,1.2-0.7,1.5c-0.5,0.4-1,0.5-1.7,0.5h-0.9c-0.6,0-1.2-0.2-1.6-0.5c-0.4-0.4-0.7-0.9-0.7-1.5v-0.2v-2.4v-3.2h9.8v-3.3
		c0-1.3,0-2.5-0.1-3.6c0-1.2-0.1-2.1-0.3-2.7c-0.2-1.1-0.7-2-1.5-2.7c-0.8-0.7-1.8-1.1-2.9-1.4c-1.1-0.3-2.3-0.3-3.4-0.1
		c-1.2,0.2-2.2,0.5-3,1.2c-1.1,0.7-1.9,1.7-2.4,3c-0.5,1.3-0.7,3-0.7,5.2v7.5c0,3.2,0.8,5.4,2.5,6.8c1.6,1.3,3.2,1.9,4.9,1.9
		c0.2,0,0.3,0,0.5,0c1.9-0.1,3.6-0.9,5.1-2.4c1.1-1.1,1.7-2.5,1.7-4.3C82.9,79.5,82.8,78.8,82.7,78.2z M78.3,71h-5.4l0.1-3
		c0-0.7,0.2-1.2,0.7-1.6c0.5-0.4,1.1-0.6,1.8-0.6h0.2c0.7,0,1.4,0.2,1.9,0.6c0.5,0.4,0.8,1,0.8,1.7L78.3,71z"/>
</g>
</svg>
